# xmcd
#
# Track frame offsets:
#	150
#	16362
#	24962
#	39784
#	55320
#	71430
#	86024
#	109679
#	120665
#	135805
#	149454
#	159093
#	172870
#	183298
#
# Disc length: 2628 seconds
#
# Revision: 2
# Processed by: cddbd v1.5PL3 Copyright (c) Steve Scherf et al.
# Submitted via: EasyCDDAExtractor 5.0.2.1
#
DISCID=a10a420e
DTITLE=B.B. King - The Best [CDTwo)
DYEAR=1998
DGENRE=Blues
TTITLE0=The Other Night Blues
TTITLE1=A New Way Of Driving
TTITLE2=B.B. Boogie
TTITLE3=Walking' And Cryin'
TTITLE4=It's My Own Fault
TTITLE5=Mr.Pawnbroker
TTITLE6=You've Done Lost Your Good Thing Now
TTITLE7=Catfish Blues
TTITLE8=Precious Lord
TTITLE9=Servant's Prayer
TTITLE10=Swing Low Sweet Chariot/Rock Me Lord
TTITLE11=Jesus Gave Me Water
TTITLE12=I'm Willing To Run All The Way
TTITLE13=Save a Seat For Me
EXTD=
EXTT0=
EXTT1=
EXTT2=
EXTT3=
EXTT4=
EXTT5=
EXTT6=
EXTT7=
EXTT8=
EXTT9=
EXTT10=
EXTT11=
EXTT12=
EXTT13=
PLAYORDER=
